{"title":"Tracker (2010) BRRip x264 Feel-Free","uid":6342236,"size":986014310,"categoryP":"video","categoryS":"movies","magnet":"?xt=urn:btih:2c64ead402787f63502df6695dba6b67f5455305&amp;dn=Tracker+%282010%29+BRRip+x264+Feel-Free&amp;tr=udp%3A%2F%2Ftracker.openbittorrent.com%3A80&amp;tr=udp%3A%2F%2Fopen.demonii.com%3A1337&amp;tr=udp%3A%2F%2Ftracker.coppersurfer.tk%3A6969&amp;tr=udp%3A%2F%2Fexodus.desync.com%3A6969","seeders":0,"leechers":1,"uploader":"hiest","files":-1,"time":1303718069,"description":"######## ######## ######## ##          ######## ########  ######## ######## \n##       ##       ##       ##          ##       ##     ## ##       ##       \n##       ##       ##       ##          ##       ##     ## ##       ##       \n######   ######   ######   ##          ######   ########  ######   ######   \n##       ##       ##       ##          ##       ##   ##   ##       ##       \n##       ##       ##       ##          ##       ##    ##  ##       ##       \n##       ######## ######## ########    ##       ##     ## ######## ########  \n\n Genre:Action | Adventure | Drama \n Language:English\n IMDb:\n &lt;a href=&quot; http://www.imdb.com/title/tt1414378/&quot; rel=&quot;nofollow&quot; target=&quot;_NEW&quot;&gt; http://www.imdb.com/title/tt1414378/&lt;/a&gt;\n Source:Bluray\n\n\n Format : MPEG-4\n Format profile : Base Media\n Codec ID : isom\n File size : 938 MiB\n Duration : 1h 42mn\n Overall bit rate : 1 284 Kbps\n\n\n Video\n Format profile : &lt;a class=&quot;__cf_email__&quot; href=&quot;/cdn-cgi/l/email-protection&quot; data-cfemail=&quot;6b23020c032b275f455a&quot;&gt;[email&amp;#160;protected]&lt;/a&gt;&lt;script cf-hash='f9e31' type=&quot;text/javascript&quot;&gt;\n/* &lt;![CDATA[ */!function(){try{var t=&quot;currentScript&quot;in document?document.currentScript:function(){for(var t=document.getElementsByTagName(&quot;script&quot;),e=t.length;e--;)if(t[e].getAttribute(&quot;cf-hash&quot;))return t[e]}();if(t&amp;&amp;t.previousSibling){var e,r,n,i,c=t.previousSibling,a=c.getAttribute(&quot;data-cfemail&quot;);if(a){for(e=&quot;&quot;,r=parseInt(a.substr(0,2),16),n=2;a.length-n;n+=2)i=parseInt(a.substr(n,2),16)^r,e+=String.fromCharCode(i);e=document.createTextNode(e),c.parentNode.replaceChild(e,c)}}}catch(u){}}();/* ]]&gt; */&lt;/script&gt;\n Format settings, CABAC : Yes\n Format settings, ReFrames : 3 frames\n Codec ID : avc1\n Codec ID/Info : Advanced Video Coding\n Duration : 1h 42mn\n Bit rate mode : Variable\n Bit rate : 846 Kbps\n Maximum bit rate : 4 360 Kbps\n Width : 720 pixels\n Height : 304 pixels\n Display aspect ratio : 2.35:1\n Frame rate mode : Constant\n Frame rate : 23.976 fps\n Color space : YUV\n Chroma subsampling : 4:2:0\n Bit depth : 8 bits\n Scan type : Progressive\n Bits/(Pixel*Frame) : 0.161\n Stream size : 610 MiB (65%)\n Writing library : x264\n\n\n Audio\n ID : 2\n Format : AAC\n Format/Info : Advanced Audio Codec\n Format version : Version 4\n Format profile : LC\n Format settings, SBR : No\n Codec ID : 40\n Duration : 1h 42mn\n Bit rate mode : Variable\n Bit rate : 445 Kbps\n Maximum bit rate : 582 Kbps\n Channel(s) : 6 channels\n Channel positions : Front: L C R, Side: L R, LFE\n Sampling rate : 48.0 KHz\n Stream size : 325 MiB (35%)\n\n\n Plot:\n An ex-Boer war guerrilla in New Zealand is sent out to bring back a Maori  accused of killing a British soldier.\n\n\nScreen Shots:\n &lt;a href=&quot;\nhttp://leetleech.org/images/43173705465111274635.png&quot; rel=&quot;nofollow&quot; target=&quot;_NEW&quot;&gt;\nhttp://leetleech.org/images/43173705465111274635.png&lt;/a&gt;\n &lt;a href=&quot;\nhttp://leetleech.org/images/76455656835169617655.png&quot; rel=&quot;nofollow&quot; target=&quot;_NEW&quot;&gt;\nhttp://leetleech.org/images/76455656835169617655.png&lt;/a&gt;\n &lt;a href=&quot;\nhttp://leetleech.org/images/36620694107052042545.png&quot; rel=&quot;nofollow&quot; target=&quot;_NEW&quot;&gt;\nhttp://leetleech.org/images/36620694107052042545.png&lt;/a&gt;\n &lt;a href=&quot;\nhttp://leetleech.org/images/53660198104907265603.png&quot; rel=&quot;nofollow&quot; target=&quot;_NEW&quot;&gt;\nhttp://leetleech.org/images/53660198104907265603.png&lt;/a&gt;\n &lt;a href=&quot;\nhttp://leetleech.org/images/91784600952768984672.png&quot; rel=&quot;nofollow&quot; target=&quot;_NEW&quot;&gt;\nhttp://leetleech.org/images/91784600952768984672.png&lt;/a&gt;\n\n######## ######## ######## ##          ######## ########  ######## ######## \n##       ##       ##       ##          ##       ##     ## ##       ##       \n##       ##       ##       ##          ##       ##     ## ##       ##       \n######   ######   ######   ##          ######   ########  ######   ######   \n##       ##       ##       ##          ##       ##   ##   ##       ##       \n##       ##       ##       ##          ##       ##    ##  ##       ##       \n##       ######## ######## ########    ##       ##     ## ######## ######## ","torrent":{"xt":"urn:btih:2c64ead402787f63502df6695dba6b67f5455305","amp;dn":"Tracker+%282010%29+BRRip+x264+Feel-Free","amp;tr":["udp%3A%2F%2Ftracker.openbittorrent.com%3A80","udp%3A%2F%2Fopen.demonii.com%3A1337","udp%3A%2F%2Ftracker.coppersurfer.tk%3A6969","udp%3A%2F%2Fexodus.desync.com%3A6969"],"infoHash":"2c64ead402787f63502df6695dba6b67f5455305","infoHashBuffer":{"type":"Buffer","data":[44,100,234,212,2,120,127,99,80,45,246,105,93,186,107,103,245,69,83,5]},"announce":[],"urlList":[]}}